# xmcd
#
# Track frame offsets:
#	150
#	16672
#	32541
#
# Disc length: 666 seconds
#
# Revision: 0
# Processed by: cddbd v1.5.2PL0 Copyright (c) Steve Scherf et al.
# Submitted via: audiograbber 1.82.01
#
DISCID=12029803
DTITLE=Pussycat Dolls - I Don't Need A Man
DYEAR=1900
DGENRE=
TTITLE0=I Don't Need A Man (Album Version)
TTITLE1=I Don't Need A Man (Instrumental)
TTITLE2=We Went As Far As We Felt Like Going (Album Version)
EXTD=
EXTT0=
EXTT1=
EXTT2=
PLAYORDER=
